<?xml version="1.0" encoding="UTF-8" standalone="no"?>
<!-- Created with Inkscape (http://www.inkscape.org/) -->

<svg
   width="130mm"
   height="117mm"
   viewBox="0 0 130 117"
   version="1.1"
   id="svg1"
   inkscape:version="1.3 (1:1.3+202307231459+0e150ed6c4)"
   sodipodi:docname="rotation_pmt.svg"
   inkscape:export-filename="rotation_pmt.png"
   inkscape:export-xdpi="200"
   inkscape:export-ydpi="200"
   xmlns:inkscape="http://www.inkscape.org/namespaces/inkscape"
   xmlns:sodipodi="http://sodipodi.sourceforge.net/DTD/sodipodi-0.dtd"
   xmlns:xlink="http://www.w3.org/1999/xlink"
   xmlns="http://www.w3.org/2000/svg"
   xmlns:svg="http://www.w3.org/2000/svg">
  <sodipodi:namedview
     id="namedview1"
     pagecolor="#ffffff"
     bordercolor="#000000"
     borderopacity="0.25"
     inkscape:showpageshadow="2"
     inkscape:pageopacity="0.0"
     inkscape:pagecheckerboard="0"
     inkscape:deskcolor="#d1d1d1"
     inkscape:document-units="mm"
     inkscape:zoom="1.9515848"
     inkscape:cx="245.69775"
     inkscape:cy="221.61476"
     inkscape:window-width="1920"
     inkscape:window-height="1056"
     inkscape:window-x="0"
     inkscape:window-y="24"
     inkscape:window-maximized="1"
     inkscape:current-layer="layer1" />
  <defs
     id="defs1">
    <linearGradient
       id="linearGradient8"
       inkscape:collect="always">
      <stop
         style="stop-color:#000000;stop-opacity:1;"
         offset="0"
         id="stop9" />
      <stop
         style="stop-color:#000000;stop-opacity:0;"
         offset="1"
         id="stop10" />
    </linearGradient>
    <linearGradient
       id="linearGradient7"
       inkscape:collect="always">
      <stop
         style="stop-color:#5f5f5f;stop-opacity:1;"
         offset="0"
         id="stop7" />
      <stop
         style="stop-color:#8d8d8d;stop-opacity:0;"
         offset="1"
         id="stop8" />
    </linearGradient>
    <marker
       style="overflow:visible"
       id="marker5"
       refX="0"
       refY="0"
       orient="auto-start-reverse"
       inkscape:stockid="Stylized triangle arrow"
       markerWidth="1"
       markerHeight="1"
       viewBox="0 0 1 1"
       inkscape:isstock="true"
       inkscape:collect="always"
       preserveAspectRatio="xMidYMid">
      <path
         transform="scale(0.5)"
         style="fill:context-stroke;fill-rule:evenodd;stroke:context-stroke;stroke-width:1pt"
         d="m 6,0 c -3,1 -7,3 -9,5 0,0 0,-4 2,-5 -2,-1 -2,-5 -2,-5 2,2 6,4 9,5 z"
         id="path5" />
    </marker>
    <marker
       style="overflow:visible"
       id="ArrowTriangleStylized"
       refX="0"
       refY="0"
       orient="auto-start-reverse"
       inkscape:stockid="Stylized triangle arrow"
       markerWidth="1"
       markerHeight="1"
       viewBox="0 0 1 1"
       inkscape:isstock="true"
       inkscape:collect="always"
       preserveAspectRatio="xMidYMid">
      <path
         transform="scale(0.5)"
         style="fill:context-stroke;fill-rule:evenodd;stroke:context-stroke;stroke-width:1pt"
         d="m 6,0 c -3,1 -7,3 -9,5 0,0 0,-4 2,-5 -2,-1 -2,-5 -2,-5 2,2 6,4 9,5 z"
         id="path4" />
    </marker>
    <radialGradient
       inkscape:collect="always"
       xlink:href="#linearGradient7"
       id="radialGradient8"
       cx="65.758781"
       cy="80.16497"
       fx="65.758781"
       fy="80.16497"
       r="43.839455"
       gradientUnits="userSpaceOnUse"
       gradientTransform="matrix(1.1158566,1.4299357,-1.0316157,0.80502588,51.57081,-123.37143)" />
    <radialGradient
       inkscape:collect="always"
       xlink:href="#linearGradient8"
       id="radialGradient10"
       cx="84.402725"
       cy="106.19376"
       fx="84.402725"
       fy="106.19376"
       r="43.789455"
       gradientUnits="userSpaceOnUse"
       gradientTransform="translate(-24.066834,-44.647092)" />
  </defs>
  <g
     inkscape:label="Layer 1"
     inkscape:groupmode="layer"
     id="layer1">
    <path
       style="fill:none;fill-opacity:1;stroke:#000000;stroke-width:0.4;stroke-dasharray:3.2, 3.2;stroke-dashoffset:0;stroke-opacity:1"
       id="path13"
       sodipodi:type="arc"
       sodipodi:cx="60.412628"
       sodipodi:cy="60.653618"
       sodipodi:rx="43.532494"
       sodipodi:ry="13.230108"
       sodipodi:start="3.1061918"
       sodipodi:end="0.033469629"
       sodipodi:arc-type="arc"
       d="M 16.90741,61.121877 A 43.532494,13.230108 0 0 1 38.178936,49.279211 43.532494,13.230108 0 0 1 82.574,49.266183 43.532494,13.230108 0 0 1 103.92074,61.096342"
       sodipodi:open="true" />
    <path
       style="fill:#ffd42a;stroke:#000000;stroke-width:1;stroke-dasharray:none;stroke-opacity:1;marker-start:url(#ArrowTriangleStylized)"
       d="M 60.35188,12.916906 V 114.33825"
       id="path1" />
    <g
       inkscape:label=""
       transform="matrix(2.2162469,0,0,2.2162469,10.006036,107.32731)"
       id="g8">
      <g
         id="surface1"
         transform="matrix(0.352778,0,0,0.352778,-0.807817,-0.661723)">
        <g
           style="fill:#000000;fill-opacity:1"
           id="g5">
          <g
             id="use4"
             transform="translate(1.993,6.2820001)">
            <path
               style="stroke:none"
               d="M 3.328125,-3.015625 C 3.390625,-3.265625 3.625,-4.1875 4.3125,-4.1875 c 0.046875,0 0.296875,0 0.5,0.125 C 4.53125,-4 4.34375,-3.765625 4.34375,-3.515625 c 0,0.15625 0.109375,0.34375 0.375,0.34375 0.21875,0 0.53125,-0.171875 0.53125,-0.578125 0,-0.515625 -0.578125,-0.65625 -0.921875,-0.65625 -0.578125,0 -0.921875,0.53125 -1.046875,0.75 -0.25,-0.65625 -0.78125,-0.75 -1.078125,-0.75 -1.03125,0 -1.609375,1.28125 -1.609375,1.53125 0,0.109375 0.109375,0.109375 0.125,0.109375 0.078125,0 0.109375,-0.03125 0.125,-0.109375 0.34375,-1.0625 1,-1.3125 1.34375,-1.3125 0.1875,0 0.53125,0.09375 0.53125,0.671875 0,0.3125 -0.171875,0.96875 -0.53125,2.375 -0.15625,0.609375 -0.515625,1.03125 -0.953125,1.03125 -0.0625,0 -0.28125,0 -0.5,-0.125 0.25,-0.0625 0.46875,-0.265625 0.46875,-0.546875 0,-0.265625 -0.21875,-0.34375 -0.359375,-0.34375 -0.3125,0 -0.546875,0.25 -0.546875,0.578125 0,0.453125 0.484375,0.65625 0.921875,0.65625 0.671875,0 1.03125,-0.703125 1.046875,-0.75 0.125,0.359375 0.484375,0.75 1.078125,0.75 1.03125,0 1.59375,-1.28125 1.59375,-1.53125 0,-0.109375 -0.078125,-0.109375 -0.109375,-0.109375 -0.09375,0 -0.109375,0.046875 -0.140625,0.109375 -0.328125,1.078125 -1,1.3125 -1.3125,1.3125 -0.390625,0 -0.546875,-0.3125 -0.546875,-0.65625 0,-0.21875 0.046875,-0.4375 0.15625,-0.875 z m 0,0"
               id="path7" />
          </g>
        </g>
        <g
           style="fill:#000000;fill-opacity:1"
           id="g6">
          <g
             id="use5"
             transform="translate(7.6859999,7.776)">
            <path
               style="stroke:none"
               d="m 2.328125,-4.4375 c 0,-0.1875 0,-0.1875 -0.203125,-0.1875 -0.453125,0.4375 -1.078125,0.4375 -1.359375,0.4375 v 0.25 c 0.15625,0 0.625,0 1,-0.1875 v 3.546875 c 0,0.234375 0,0.328125 -0.6875,0.328125 H 0.8125 V 0 c 0.125,0 0.984375,-0.03125 1.234375,-0.03125 0.21875,0 1.09375,0.03125 1.25,0.03125 V -0.25 H 3.03125 c -0.703125,0 -0.703125,-0.09375 -0.703125,-0.328125 z m 0,0"
               id="path8" />
          </g>
        </g>
      </g>
    </g>
    <g
       inkscape:label=""
       transform="matrix(2.2162469,0,0,2.2162469,120.95052,59.4778)"
       id="g19">
      <g
         id="g18"
         transform="matrix(0.352778,0,0,0.352778,-0.807817,-0.661723)">
        <g
           style="fill:#000000;fill-opacity:1"
           id="g10">
          <g
             id="g9"
             transform="translate(1.993,6.2820001)">
            <path
               style="stroke:none"
               d="M 3.328125,-3.015625 C 3.390625,-3.265625 3.625,-4.1875 4.3125,-4.1875 c 0.046875,0 0.296875,0 0.5,0.125 C 4.53125,-4 4.34375,-3.765625 4.34375,-3.515625 c 0,0.15625 0.109375,0.34375 0.375,0.34375 0.21875,0 0.53125,-0.171875 0.53125,-0.578125 0,-0.515625 -0.578125,-0.65625 -0.921875,-0.65625 -0.578125,0 -0.921875,0.53125 -1.046875,0.75 -0.25,-0.65625 -0.78125,-0.75 -1.078125,-0.75 -1.03125,0 -1.609375,1.28125 -1.609375,1.53125 0,0.109375 0.109375,0.109375 0.125,0.109375 0.078125,0 0.109375,-0.03125 0.125,-0.109375 0.34375,-1.0625 1,-1.3125 1.34375,-1.3125 0.1875,0 0.53125,0.09375 0.53125,0.671875 0,0.3125 -0.171875,0.96875 -0.53125,2.375 -0.15625,0.609375 -0.515625,1.03125 -0.953125,1.03125 -0.0625,0 -0.28125,0 -0.5,-0.125 0.25,-0.0625 0.46875,-0.265625 0.46875,-0.546875 0,-0.265625 -0.21875,-0.34375 -0.359375,-0.34375 -0.3125,0 -0.546875,0.25 -0.546875,0.578125 0,0.453125 0.484375,0.65625 0.921875,0.65625 0.671875,0 1.03125,-0.703125 1.046875,-0.75 0.125,0.359375 0.484375,0.75 1.078125,0.75 1.03125,0 1.59375,-1.28125 1.59375,-1.53125 0,-0.109375 -0.078125,-0.109375 -0.109375,-0.109375 -0.09375,0 -0.109375,0.046875 -0.140625,0.109375 -0.328125,1.078125 -1,1.3125 -1.3125,1.3125 -0.390625,0 -0.546875,-0.3125 -0.546875,-0.65625 0,-0.21875 0.046875,-0.4375 0.15625,-0.875 z m 0,0"
               id="path9" />
          </g>
        </g>
        <g
           style="fill:#000000;fill-opacity:1"
           id="g17">
          <g
             id="g16"
             transform="translate(7.6859999,7.776)">
            <path
               style="stroke:none"
               d="M 3.515625,-1.265625 H 3.28125 c -0.015625,0.15625 -0.09375,0.5625 -0.1875,0.625 C 3.046875,-0.59375 2.515625,-0.59375 2.40625,-0.59375 H 1.125 c 0.734375,-0.640625 0.984375,-0.84375 1.390625,-1.171875 0.515625,-0.40625 1,-0.84375 1,-1.5 0,-0.84375 -0.734375,-1.359375 -1.625,-1.359375 -0.859375,0 -1.453125,0.609375 -1.453125,1.25 0,0.34375 0.296875,0.390625 0.375,0.390625 0.15625,0 0.359375,-0.125 0.359375,-0.375 0,-0.125 -0.046875,-0.375 -0.40625,-0.375 C 0.984375,-4.21875 1.453125,-4.375 1.78125,-4.375 c 0.703125,0 1.0625,0.546875 1.0625,1.109375 0,0.609375 -0.4375,1.078125 -0.65625,1.328125 L 0.515625,-0.265625 C 0.4375,-0.203125 0.4375,-0.1875 0.4375,0 h 2.875 z m 0,0"
               id="path16" />
          </g>
        </g>
      </g>
    </g>
    <g
       inkscape:label=""
       transform="matrix(2.2162469,0,0,2.2162469,57.721254,1.6975461)"
       id="g25">
      <g
         id="g24"
         transform="matrix(0.352778,0,0,0.352778,-0.807817,-0.661723)">
        <g
           style="fill:#000000;fill-opacity:1"
           id="g21">
          <g
             id="g20"
             transform="translate(1.993,6.2820001)">
            <path
               style="stroke:none"
               d="M 3.328125,-3.015625 C 3.390625,-3.265625 3.625,-4.1875 4.3125,-4.1875 c 0.046875,0 0.296875,0 0.5,0.125 C 4.53125,-4 4.34375,-3.765625 4.34375,-3.515625 c 0,0.15625 0.109375,0.34375 0.375,0.34375 0.21875,0 0.53125,-0.171875 0.53125,-0.578125 0,-0.515625 -0.578125,-0.65625 -0.921875,-0.65625 -0.578125,0 -0.921875,0.53125 -1.046875,0.75 -0.25,-0.65625 -0.78125,-0.75 -1.078125,-0.75 -1.03125,0 -1.609375,1.28125 -1.609375,1.53125 0,0.109375 0.109375,0.109375 0.125,0.109375 0.078125,0 0.109375,-0.03125 0.125,-0.109375 0.34375,-1.0625 1,-1.3125 1.34375,-1.3125 0.1875,0 0.53125,0.09375 0.53125,0.671875 0,0.3125 -0.171875,0.96875 -0.53125,2.375 -0.15625,0.609375 -0.515625,1.03125 -0.953125,1.03125 -0.0625,0 -0.28125,0 -0.5,-0.125 0.25,-0.0625 0.46875,-0.265625 0.46875,-0.546875 0,-0.265625 -0.21875,-0.34375 -0.359375,-0.34375 -0.3125,0 -0.546875,0.25 -0.546875,0.578125 0,0.453125 0.484375,0.65625 0.921875,0.65625 0.671875,0 1.03125,-0.703125 1.046875,-0.75 0.125,0.359375 0.484375,0.75 1.078125,0.75 1.03125,0 1.59375,-1.28125 1.59375,-1.53125 0,-0.109375 -0.078125,-0.109375 -0.109375,-0.109375 -0.09375,0 -0.109375,0.046875 -0.140625,0.109375 -0.328125,1.078125 -1,1.3125 -1.3125,1.3125 -0.390625,0 -0.546875,-0.3125 -0.546875,-0.65625 0,-0.21875 0.046875,-0.4375 0.15625,-0.875 z m 0,0"
               id="path19" />
          </g>
        </g>
        <g
           style="fill:#000000;fill-opacity:1"
           id="g23">
          <g
             id="g22"
             transform="translate(7.6859999,7.776)">
            <path
               style="stroke:none"
               d="m 1.90625,-2.328125 c 0.546875,0 0.9375,0.375 0.9375,1.125 0,0.859375 -0.515625,1.125 -0.90625,1.125 -0.28125,0 -0.90625,-0.078125 -1.1875,-0.5 0.328125,0 0.40625,-0.234375 0.40625,-0.390625 0,-0.21875 -0.171875,-0.375 -0.390625,-0.375 -0.1875,0 -0.390625,0.125 -0.390625,0.40625 0,0.65625 0.71875,1.078125 1.5625,1.078125 0.96875,0 1.640625,-0.65625 1.640625,-1.34375 0,-0.546875 -0.4375,-1.09375 -1.203125,-1.25 0.71875,-0.265625 0.984375,-0.78125 0.984375,-1.21875 0,-0.546875 -0.625,-0.953125 -1.40625,-0.953125 -0.765625,0 -1.359375,0.375 -1.359375,0.9375 0,0.234375 0.15625,0.359375 0.359375,0.359375 0.21875,0 0.359375,-0.15625 0.359375,-0.34375 0,-0.203125 -0.140625,-0.359375 -0.359375,-0.375 0.25,-0.296875 0.71875,-0.375 0.984375,-0.375 0.3125,0 0.75,0.15625 0.75,0.75 0,0.296875 -0.09375,0.625 -0.28125,0.828125 -0.21875,0.265625 -0.421875,0.28125 -0.765625,0.3125 -0.171875,0.015625 -0.1875,0.015625 -0.21875,0.015625 -0.015625,0 -0.078125,0.015625 -0.078125,0.09375 0,0.09375 0.0625,0.09375 0.1875,0.09375 z m 0,0"
               id="path21" />
          </g>
        </g>
      </g>
    </g>
    <path
       id="path6"
       style="fill:url(#radialGradient8);stroke:url(#radialGradient10);stroke-width:0.4;stroke-dasharray:none"
       d="M 60.335852,17.957043 A 43.589455,43.589455 0 0 0 16.746265,61.546631 43.589455,43.589455 0 0 0 60.335852,105.13622 43.589455,43.589455 0 0 0 103.92544,61.546631 43.589455,43.589455 0 0 0 60.335852,17.957043 Z" />
    <path
       style="fill:none;fill-opacity:1;stroke:#000000;stroke-width:0.6;stroke-dasharray:none;stroke-opacity:1"
       id="path12"
       sodipodi:type="arc"
       sodipodi:cx="60.412628"
       sodipodi:cy="60.653618"
       sodipodi:rx="43.532494"
       sodipodi:ry="13.230108"
       sodipodi:start="0.06977788"
       sodipodi:end="3.1047521"
       sodipodi:open="true"
       sodipodi:arc-type="arc"
       d="M 103.83919,61.576038 A 43.532494,13.230108 0 0 1 59.695739,73.881932 43.532494,13.230108 0 0 1 16.909673,61.140912" />
    <g
       inkscape:label=""
       transform="matrix(2.3416955,0,0,2.3416955,107.21656,44.533445)"
       id="g31">
      <g
         id="g30"
         transform="matrix(0.352778,0,0,0.352778,-0.879475,-0.661723)">
        <g
           style="fill:#000000;fill-opacity:1"
           id="g29">
          <g
             id="g28"
             transform="translate(1.993,6.2820001)">
            <path
               style="stroke:none"
               d="M 1.6875,1.6875 C 1.65625,1.828125 1.640625,1.84375 1.640625,1.890625 c 0,0.21875 0.1875,0.28125 0.296875,0.28125 0.046875,0 0.265625,-0.03125 0.359375,-0.265625 C 2.328125,1.828125 2.375,1.5 2.65625,0.09375 c 0.078125,0 0.15625,0.015625 0.328125,0.015625 1.65625,0 3.1875,-1.5625 3.1875,-3.140625 0,-0.78125 -0.390625,-1.375 -1.140625,-1.375 -1.4375,0 -2.046875,1.9375 -2.640625,3.875 C 1.3125,-0.734375 0.75,-1.28125 0.75,-2 c 0,-0.28125 0.234375,-1.375 0.828125,-2.0625 0.09375,-0.09375 0.09375,-0.109375 0.09375,-0.140625 0,-0.03125 -0.03125,-0.09375 -0.125,-0.09375 -0.28125,0 -1.046875,1.453125 -1.046875,2.40625 0,0.9375 0.65625,1.65625 1.71875,1.90625 z m 1.390625,-2.15625 c -0.09375,0 -0.109375,0 -0.1875,-0.015625 -0.125,0 -0.125,0 -0.125,-0.03125 0,-0.015625 0.171875,-0.9375 0.1875,-1.078125 0.3125,-1.28125 1.09375,-2.234375 1.984375,-2.234375 0.6875,0 0.953125,0.53125 0.953125,1.015625 0,1.125 -1.28125,2.34375 -2.8125,2.34375 z m 0,0"
               id="path27" />
          </g>
        </g>
      </g>
    </g>
    <path
       style="fill:#0000ff;fill-opacity:1;stroke:#0012df;stroke-width:1;stroke-dasharray:none;stroke-opacity:1;marker-end:url(#marker5)"
       d="M 60.287291,61.492855 68.469274,50.873131"
       id="path10" />
    <path
       style="fill:none;fill-opacity:0.59701;fill-rule:evenodd;stroke:#00ea00;stroke-width:0.6;stroke-linecap:round;stroke-dasharray:none;stroke-opacity:1"
       id="path22"
       sodipodi:type="arc"
       sodipodi:cx="32.172909"
       sodipodi:cy="90.835663"
       sodipodi:rx="6.8814373"
       sodipodi:ry="8.0364313"
       sodipodi:start="2.7346787"
       sodipodi:end="2.3706251"
       sodipodi:open="true"
       sodipodi:arc-type="arc"
       d="m 25.853364,94.016299 a 6.8814373,8.0364313 0 0 1 3.032932,-10.241239 6.8814373,8.0364313 0 0 1 9.008731,2.596522 6.8814373,8.0364313 0 0 1 -1.395364,10.713222 6.8814373,8.0364313 0 0 1 -9.262374,-0.649119" />
    <path
       style="fill:none;fill-opacity:0.59701;fill-rule:evenodd;stroke:#00ea00;stroke-width:0.6;stroke-linecap:round;stroke-dasharray:none;stroke-opacity:1;marker-end:url(#ArrowTriangleStylized)"
       id="path24"
       sodipodi:type="arc"
       sodipodi:cx="32.172909"
       sodipodi:cy="90.835663"
       sodipodi:rx="6.8814373"
       sodipodi:ry="8.0364313"
       sodipodi:start="5.3585908"
       sodipodi:end="0.41657475"
       sodipodi:open="true"
       sodipodi:arc-type="arc"
       d="m 36.316624,84.419564 a 6.8814373,8.0364313 0 0 1 2.149223,9.667884" />
    <path
       style="fill:none;fill-opacity:1;stroke:#00da00;stroke-width:0.5;stroke-dasharray:4, 4;stroke-opacity:1;stroke-dashoffset:0;marker-start:url(#ArrowTriangleStylized)"
       id="path28"
       sodipodi:type="arc"
       sodipodi:cx="61.867458"
       sodipodi:cy="-61.116844"
       sodipodi:rx="43.532494"
       sodipodi:ry="13.230108"
       sodipodi:start="2.2824051"
       sodipodi:end="3.1047521"
       sodipodi:open="true"
       sodipodi:arc-type="arc"
       d="M 33.438435,-51.097521 A 43.532494,13.230108 0 0 1 18.364503,-60.62955"
       transform="rotate(90)" />
    <path
       style="fill:none;fill-opacity:0.59701;fill-rule:evenodd;stroke:#00da00;stroke-width:0.5;stroke-linecap:round;stroke-dasharray:4, 4;stroke-dashoffset:0;stroke-opacity:1;marker-end:url(#ArrowTriangleStylized)"
       id="path29"
       sodipodi:type="arc"
       sodipodi:cx="50.748375"
       sodipodi:cy="64.564972"
       sodipodi:rx="25.264269"
       sodipodi:ry="28.431717"
       sodipodi:start="4.6999355"
       sodipodi:end="5.5725125"
       sodipodi:arc-type="arc"
       d="m 50.433755,36.13546 a 25.264269,28.431717 0 0 1 19.462994,9.882256"
       sodipodi:open="true" />
    <path
       style="fill:#ffd42a;stroke:#000000;stroke-width:1;stroke-dasharray:none;stroke-opacity:1;marker-start:url(#marker5)"
       d="M 19.28383,102.51541 98.989511,22.809741"
       id="path3" />
    <path
       style="fill:#ffd42a;stroke:#000000;stroke-width:1;stroke-dasharray:none;stroke-opacity:1;marker-end:url(#ArrowTriangleStylized)"
       d="M 1.7476999,61.505382 H 114.8417"
       id="path2" />
    <path
       style="fill:none;fill-opacity:0.59701;fill-rule:evenodd;stroke:#00e900;stroke-width:0.6;stroke-linecap:round;stroke-dasharray:none;stroke-opacity:1;marker-start:url(#ArrowTriangleStylized)"
       id="path23"
       sodipodi:type="arc"
       sodipodi:cx="109.08698"
       sodipodi:cy="61.310925"
       sodipodi:rx="1.6217602"
       sodipodi:ry="8.7990294"
       sodipodi:start="3.3139194"
       sodipodi:end="4.0852435"
       sodipodi:arc-type="arc"
       d="m 107.48924,59.80211 a 1.6217602,8.7990294 0 0 1 0.64604,-5.615812"
       sodipodi:open="true" />
    <path
       style="fill:none;fill-opacity:0.59701;fill-rule:evenodd;stroke:#00e900;stroke-width:0.6;stroke-linecap:round;stroke-dasharray:none;stroke-opacity:1"
       id="path20"
       sodipodi:type="arc"
       sodipodi:cx="109.08698"
       sodipodi:cy="61.310925"
       sodipodi:rx="1.6217602"
       sodipodi:ry="8.7990294"
       sodipodi:start="0.24182988"
       sodipodi:end="6.1204024"
       sodipodi:open="true"
       sodipodi:arc-type="arc"
       d="m 110.66155,63.418113 a 1.6217602,8.7990294 0 0 1 -1.80196,6.604918 1.6217602,8.7990294 0 0 1 -1.3931,-9.059784 1.6217602,8.7990294 0 0 1 1.52061,-8.434647 1.6217602,8.7990294 0 0 1 1.7002,7.35631" />
    <g
       inkscape:label=""
       transform="matrix(2.3416955,0,0,2.3416955,36.02466,96.896468)"
       id="g27">
      <g
         id="g26"
         transform="matrix(0.352778,0,0,0.352778,1.6803231,-4.22395)">
        <g
           style="fill:#000000;fill-opacity:1"
           id="g3">
          <g
             id="use2"
             transform="translate(1.993,8.9110003)">
            <path
               style="stroke:none"
               d="m 4.53125,-4.984375 c 0,-0.65625 -0.171875,-2.046875 -1.1875,-2.046875 -1.390625,0 -2.921875,2.8125 -2.921875,5.09375 0,0.9375 0.28125,2.046875 1.1875,2.046875 1.40625,0 2.921875,-2.859375 2.921875,-5.09375 z M 1.46875,-3.625 C 1.640625,-4.25 1.84375,-5.046875 2.25,-5.765625 2.515625,-6.25 2.875,-6.8125 3.328125,-6.8125 c 0.484375,0 0.546875,0.640625 0.546875,1.203125 0,0.5 -0.078125,1 -0.3125,1.984375 z m 2,0.328125 C 3.359375,-2.84375 3.15625,-2 2.765625,-1.28125 c -0.34375,0.6875 -0.71875,1.171875 -1.15625,1.171875 -0.328125,0 -0.53125,-0.296875 -0.53125,-1.21875 0,-0.421875 0.0625,-1 0.3125,-1.96875 z m 0,0"
               id="path25" />
          </g>
        </g>
      </g>
    </g>
  </g>
</svg>
